<svg width="145" height="45" viewBox="0 0 145 45" fill="none" xmlns="http://www.w3.org/2000/svg">
<rect x="3.5" y="3.5" width="38" height="38" fill="white" stroke="black" stroke-width="7"/>
<path d="M60.056 20.112C59.2347 20.112 58.4987 19.9787 57.848 19.712C57.1973 19.4453 56.6747 19.0507 56.28 18.528C55.896 18.0053 55.6933 17.376 55.672 16.64H58.584C58.6267 17.056 58.7707 17.376 59.016 17.6C59.2613 17.8133 59.5813 17.92 59.976 17.92C60.3813 17.92 60.7013 17.8293 60.936 17.648C61.1707 17.456 61.288 17.1947 61.288 16.864C61.288 16.5867 61.192 16.3573 61 16.176C60.8187 15.9947 60.5893 15.8453 60.312 15.728C60.0453 15.6107 59.6613 15.4773 59.16 15.328C58.4347 15.104 57.8427 14.88 57.384 14.656C56.9253 14.432 56.5307 14.1013 56.2 13.664C55.8693 13.2267 55.704 12.656 55.704 11.952C55.704 10.9067 56.0827 10.0907 56.84 9.504C57.5973 8.90667 58.584 8.608 59.8 8.608C61.0373 8.608 62.0347 8.90667 62.792 9.504C63.5493 10.0907 63.9547 10.912 64.008 11.968H61.048C61.0267 11.6053 60.8933 11.3227 60.648 11.12C60.4027 10.9067 60.088 10.8 59.704 10.8C59.3733 10.8 59.1067 10.8907 58.904 11.072C58.7013 11.2427 58.6 11.4933 58.6 11.824C58.6 12.1867 58.7707 12.4693 59.112 12.672C59.4533 12.8747 59.9867 13.0933 60.712 13.328C61.4373 13.5733 62.024 13.808 62.472 14.032C62.9307 14.256 63.3253 14.5813 63.656 15.008C63.9867 15.4347 64.152 15.984 64.152 16.656C64.152 17.296 63.9867 17.8773 63.656 18.4C63.336 18.9227 62.8667 19.3387 62.248 19.648C61.6293 19.9573 60.8987 20.112 60.056 20.112ZM73.6758 21.92L72.2358 19.984C71.8091 20.0693 71.3931 20.112 70.9878 20.112C69.9318 20.112 68.9611 19.8667 68.0758 19.376C67.2011 18.8853 66.5024 18.2027 65.9798 17.328C65.4678 16.4427 65.2118 15.4507 65.2118 14.352C65.2118 13.2533 65.4678 12.2667 65.9798 11.392C66.5024 10.5173 67.2011 9.83467 68.0758 9.344C68.9611 8.85333 69.9318 8.608 70.9878 8.608C72.0438 8.608 73.0091 8.85333 73.8838 9.344C74.7691 9.83467 75.4624 10.5173 75.9638 11.392C76.4758 12.2667 76.7318 13.2533 76.7318 14.352C76.7318 15.312 76.5344 16.192 76.1398 16.992C75.7558 17.7813 75.2171 18.4373 74.5238 18.96L76.9878 21.92H73.6758ZM68.0118 14.352C68.0118 15.344 68.2784 16.1387 68.8118 16.736C69.3558 17.3227 70.0811 17.616 70.9878 17.616C71.8838 17.616 72.5984 17.3173 73.1318 16.72C73.6758 16.1227 73.9478 15.3333 73.9478 14.352C73.9478 13.36 73.6758 12.5707 73.1318 11.984C72.5984 11.3867 71.8838 11.088 70.9878 11.088C70.0811 11.088 69.3558 11.3813 68.8118 11.968C68.2784 12.5547 68.0118 13.3493 68.0118 14.352ZM80.8131 8.768V15.488C80.8131 16.16 80.9785 16.6773 81.3091 17.04C81.6398 17.4027 82.1251 17.584 82.7651 17.584C83.4051 17.584 83.8958 17.4027 84.2371 17.04C84.5785 16.6773 84.7491 16.16 84.7491 15.488V8.768H87.4851V15.472C87.4851 16.4747 87.2718 17.3227 86.8451 18.016C86.4185 18.7093 85.8425 19.232 85.1171 19.584C84.4025 19.936 83.6025 20.112 82.7171 20.112C81.8318 20.112 81.0371 19.9413 80.3331 19.6C79.6398 19.248 79.0905 18.7253 78.6851 18.032C78.2798 17.328 78.0771 16.4747 78.0771 15.472V8.768H80.8131ZM96.2384 18.016H92.0464L91.3744 20H88.5104L92.5744 8.768H95.7424L99.8064 20H96.9104L96.2384 18.016ZM95.5344 15.904L94.1424 11.792L92.7664 15.904H95.5344ZM106.611 20L104.275 15.76H103.619V20H100.883V8.768H105.475C106.361 8.768 107.113 8.92267 107.731 9.232C108.361 9.54133 108.83 9.968 109.139 10.512C109.449 11.0453 109.603 11.6427 109.603 12.304C109.603 13.0507 109.39 13.7173 108.963 14.304C108.547 14.8907 107.929 15.3067 107.107 15.552L109.699 20H106.611ZM103.619 13.824H105.315C105.817 13.824 106.19 13.7013 106.435 13.456C106.691 13.2107 106.819 12.864 106.819 12.416C106.819 11.9893 106.691 11.6533 106.435 11.408C106.19 11.1627 105.817 11.04 105.315 11.04H103.619V13.824ZM113.897 10.96V13.232H117.561V15.344H113.897V17.808H118.041V20H111.161V8.768H118.041V10.96H113.897ZM123.865 8.768C125.049 8.768 126.084 9.00267 126.969 9.472C127.854 9.94133 128.537 10.6027 129.017 11.456C129.508 12.2987 129.753 13.2747 129.753 14.384C129.753 15.4827 129.508 16.4587 129.017 17.312C128.537 18.1653 127.849 18.8267 126.953 19.296C126.068 19.7653 125.038 20 123.865 20H119.657V8.768H123.865ZM123.689 17.632C124.724 17.632 125.529 17.3493 126.105 16.784C126.681 16.2187 126.969 15.4187 126.969 14.384C126.969 13.3493 126.681 12.544 126.105 11.968C125.529 11.392 124.724 11.104 123.689 11.104H122.393V17.632H123.689ZM55.528 30.368C55.528 29.2587 55.768 28.272 56.248 27.408C56.728 26.5333 57.3947 25.856 58.248 25.376C59.112 24.8853 60.088 24.64 61.176 24.64C62.5093 24.64 63.6507 24.992 64.6 25.696C65.5493 26.4 66.184 27.36 66.504 28.576H63.496C63.272 28.1067 62.952 27.7493 62.536 27.504C62.1307 27.2587 61.6667 27.136 61.144 27.136C60.3013 27.136 59.6187 27.4293 59.096 28.016C58.5733 28.6027 58.312 29.3867 58.312 30.368C58.312 31.3493 58.5733 32.1333 59.096 32.72C59.6187 33.3067 60.3013 33.6 61.144 33.6C61.6667 33.6 62.1307 33.4773 62.536 33.232C62.952 32.9867 63.272 32.6293 63.496 32.16H66.504C66.184 33.376 65.5493 34.336 64.6 35.04C63.6507 35.7333 62.5093 36.08 61.176 36.08C60.088 36.08 59.112 35.84 58.248 35.36C57.3947 34.8693 56.728 34.192 56.248 33.328C55.768 32.464 55.528 31.4773 55.528 30.368ZM73.3315 36.112C72.2755 36.112 71.3048 35.8667 70.4195 35.376C69.5448 34.8853 68.8462 34.2027 68.3235 33.328C67.8115 32.4427 67.5555 31.4507 67.5555 30.352C67.5555 29.2533 67.8115 28.2667 68.3235 27.392C68.8462 26.5173 69.5448 25.8347 70.4195 25.344C71.3048 24.8533 72.2755 24.608 73.3315 24.608C74.3875 24.608 75.3528 24.8533 76.2275 25.344C77.1128 25.8347 77.8062 26.5173 78.3075 27.392C78.8195 28.2667 79.0755 29.2533 79.0755 30.352C79.0755 31.4507 78.8195 32.4427 78.3075 33.328C77.7955 34.2027 77.1022 34.8853 76.2275 35.376C75.3528 35.8667 74.3875 36.112 73.3315 36.112ZM73.3315 33.616C74.2275 33.616 74.9422 33.3173 75.4755 32.72C76.0195 32.1227 76.2915 31.3333 76.2915 30.352C76.2915 29.36 76.0195 28.5707 75.4755 27.984C74.9422 27.3867 74.2275 27.088 73.3315 27.088C72.4248 27.088 71.6995 27.3813 71.1555 27.968C70.6222 28.5547 70.3555 29.3493 70.3555 30.352C70.3555 31.344 70.6222 32.1387 71.1555 32.736C71.6995 33.3227 72.4248 33.616 73.3315 33.616ZM83.1256 24.768V31.488C83.1256 32.16 83.291 32.6773 83.6216 33.04C83.9523 33.4027 84.4376 33.584 85.0776 33.584C85.7176 33.584 86.2083 33.4027 86.5496 33.04C86.891 32.6773 87.0616 32.16 87.0616 31.488V24.768H89.7976V31.472C89.7976 32.4747 89.5843 33.3227 89.1576 34.016C88.731 34.7093 88.155 35.232 87.4296 35.584C86.715 35.936 85.915 36.112 85.0296 36.112C84.1443 36.112 83.3496 35.9413 82.6456 35.6C81.9523 35.248 81.403 34.7253 80.9976 34.032C80.5923 33.328 80.3896 32.4747 80.3896 31.472V24.768H83.1256ZM101.607 36H98.8709L94.2949 29.072V36H91.5589V24.768H94.2949L98.8709 31.728V24.768H101.607V36ZM111.51 24.768V26.96H108.534V36H105.798V26.96H102.822V24.768H111.51ZM118.451 36L116.115 31.76H115.459V36H112.723V24.768H117.315C118.201 24.768 118.953 24.9227 119.571 25.232C120.201 25.5413 120.67 25.968 120.979 26.512C121.289 27.0453 121.443 27.6427 121.443 28.304C121.443 29.0507 121.23 29.7173 120.803 30.304C120.387 30.8907 119.769 31.3067 118.947 31.552L121.539 36H118.451ZM115.459 29.824H117.155C117.657 29.824 118.03 29.7013 118.275 29.456C118.531 29.2107 118.659 28.864 118.659 28.416C118.659 27.9893 118.531 27.6533 118.275 27.408C118.03 27.1627 117.657 27.04 117.155 27.04H115.459V29.824ZM125.737 24.768V36H123.001V24.768H125.737ZM130.295 26.96V29.232H133.959V31.344H130.295V33.808H134.439V36H127.559V24.768H134.439V26.96H130.295ZM140.12 36.112C139.298 36.112 138.562 35.9787 137.912 35.712C137.261 35.4453 136.738 35.0507 136.344 34.528C135.96 34.0053 135.757 33.376 135.736 32.64H138.648C138.69 33.056 138.834 33.376 139.08 33.6C139.325 33.8133 139.645 33.92 140.04 33.92C140.445 33.92 140.765 33.8293 141 33.648C141.234 33.456 141.352 33.1947 141.352 32.864C141.352 32.5867 141.256 32.3573 141.064 32.176C140.882 31.9947 140.653 31.8453 140.376 31.728C140.109 31.6107 139.725 31.4773 139.224 31.328C138.498 31.104 137.906 30.88 137.448 30.656C136.989 30.432 136.594 30.1013 136.264 29.664C135.933 29.2267 135.768 28.656 135.768 27.952C135.768 26.9067 136.146 26.0907 136.904 25.504C137.661 24.9067 138.648 24.608 139.864 24.608C141.101 24.608 142.098 24.9067 142.856 25.504C143.613 26.0907 144.018 26.912 144.072 27.968H141.112C141.09 27.6053 140.957 27.3227 140.712 27.12C140.466 26.9067 140.152 26.8 139.768 26.8C139.437 26.8 139.17 26.8907 138.968 27.072C138.765 27.2427 138.664 27.4933 138.664 27.824C138.664 28.1867 138.834 28.4693 139.176 28.672C139.517 28.8747 140.05 29.0933 140.776 29.328C141.501 29.5733 142.088 29.808 142.536 30.032C142.994 30.256 143.389 30.5813 143.72 31.008C144.05 31.4347 144.216 31.984 144.216 32.656C144.216 33.296 144.05 33.8773 143.72 34.4C143.4 34.9227 142.93 35.3387 142.312 35.648C141.693 35.9573 140.962 36.112 140.12 36.112Z" fill="black"/>
</svg>
